<?xml version="1.0" standalone="no"?><!DOCTYPE svg PUBLIC "-//W3C//DTD SVG 1.1//EN" "http://www.w3.org/Graphics/SVG/1.1/DTD/svg11.dtd"><svg t="1770912831714" class="icon" viewBox="0 0 1024 1024" version="1.1" xmlns="http://www.w3.org/2000/svg" p-id="5907" xmlns:xlink="http://www.w3.org/1999/xlink" width="200" height="200"><path d="M902.912 397.653333c-28.202667 0.704-28.202667 42.026667 0 42.752 28.202667-0.704 28.202667-42.069333 0-42.773333z" p-id="5908"></path><path d="M112.362667 976.021333h447.274666c15.701333-0.234667 15.850667-23.722667 0-24h-74.410666c-12.309333-66.133333-59.072-110.4 20.522666-187.541333 89.621333-69.333333 55.978667-214.506667-54.933333-237.269333a1336.96 1336.96 0 0 1-76.565333-196.970667c89.344-53.909333 187.882667-98.069333 285.418666-135.466667l35.562667 44.458667c0.810667 1.386667 20.416 38.442667 21.290667 39.872 7.957333 13.333333 26.624 17.984 39.893333 9.898667l25.472 31.829333-16.832 13.461333a55.594667 55.594667 0 0 0-8.704 78.08l15.061333 18.816q30.101333 37.546667 30.122667 37.653334c11.264 14.933333 34.645333 16.64 50.965333 8.106666 65.045333 55.04 157.44-18.88 117.973334-94.421333 11.776-14.08 14.997333-37.141333 3.072-51.242667l-45.162667-56.490666c-18.133333-23.68-55.104-27.733333-78.037333-8.704l-12.437334 9.941333-25.493333-31.872c10.794667-11.093333 10.432-30.378667-0.853333-41.066667-0.512-0.533333-32.938667-29.482667-33.472-29.973333l-38.890667-48.64c7.424-48.341333-42.133333-90.581333-88.810667-75.733333-0.704 0.128-107.370667 39.658667-108.138666 39.893333a1542.954667 1542.954667 0 0 1-206.997334 60.309333c-0.682667 0.277333-96.938667 20.842667-97.706666 21.184a105.706667 105.706667 0 0 0-75.456 100.821334c-0.277333 38.997333 22.890667 76.8 57.92 93.845333 34.346667 65.813333 65.386667 134.634667 88.96 204.970667l-103.296 60.16c-55.765333 23.893333-75.84 99.541333-39.274667 147.968 12.373333 17.813333 42.730667 67.605333 42.410667 94.976l-22.016 79.146666h-74.453334c-15.744 0.256-15.765333 23.744 0 24z m99.349333-24l18.218667-65.429333h212.138666l18.24 65.429333H211.712z m225.173333-89.429333h-204.821333c-2.218667-15.36-8.981333-32.682667-16.682667-48.512a98.56 98.56 0 0 0 55.210667 2.133333l171.733333-24.789333c4.053333-0.576 8.064-1.365333 12.032-2.304-17.578667 30.08-19.072 56.917333-17.493333 73.450667v0.021333z m270.293334-646.826667l-24.256-30.336c19.413333-6.784 36.629333-15.786667 46.997333-34.090666l22.549333 28.181333-45.312 36.224h0.021334z m192.298666 114.176l0.32 0.341334 9.813334 12.266666c-39.808-4.309333-78.464 26.794667-82.816 66.581334-5.589333-7.850667-18.944-17.962667-8.042667-27.605334l65.92-52.672a10.922667 10.922667 0 0 1 14.805333 1.088z m-68.16 128.213334c-3.370667 0.085333-8.085333-0.597333-11.029333-4.288l-22.592-28.224 7.04-5.653334 30.208 37.76c-1.194667 0.213333-2.432 0.341333-3.626667 0.384z m124.074667-33.28c-4.672 46.250667-65.024 63.722667-93.696 27.136-18.176-21.781333-14.293333-56.938667 8.256-74.218667 36.053333-29.418667 91.029333 0.981333 85.44 47.082667z m1.173333-66.88a21.866667 21.866667 0 0 1-1.152 3.413333l-30.165333-37.76 6.976-5.589333 22.570667 28.245333c2.965333 3.690667 2.602667 8.405333 1.770666 11.733333v-0.042666z m-91.242666-73.130667c13.013333-10.88 34.026667-8.490667 44.288 4.928l7.616 9.514667-9.216 7.36a34.986667 34.986667 0 0 0-38.378667 3.456l-65.877333 52.650666a35.072 35.072 0 0 0-11.797334 36.693334l-9.258666 7.424-7.594667-9.493334a31.573333 31.573333 0 0 1 4.928-44.309333l26.197333-20.970667c13.76-10.986667 45.653333-36.522667 59.093334-47.232v-0.021333z m-64.704 20.992l-25.258667-31.573333 18.517333-14.826667 25.258667 31.573333-18.538667 14.826667h0.021334z m-4.266667-81.429333c0.64 2.858667-6.186667 7.082667-8.064 8.789333l-43.242667 34.602667c-3.285333 2.048-5.482667 1.621333-7.957333-1.152l-16.490667-30.912 48.32-38.634667 25.941334 23.210667c1.408 1.493333 1.536 3.178667 1.493333 4.053333v0.042667zM191.509333 300.096c-17.365333-42.752 8.042667-94.186667 52.352-106.794667l96.426667-20.885333a1571.818667 1571.818667 0 0 0 210.24-61.226667l106.986667-39.509333c31.957333-9.984 65.194667 21.056 57.194666 53.610667a45.397333 45.397333 0 0 1-24.426666 31.338666c-101.525333 40.042667-207.637333 82.090667-301.610667 137.621334l-86.656 49.898666c-40.96 20.608-94.976-0.768-110.506667-44.032z m66.133334 85.973333l-5.653334-11.178666c40.768 6.677333 67.797333-13.184 100.906667-32.362667a1354.965333 1354.965333 0 0 0 69.930667 181.802667c-33.28-1.194667-65.258667 15.744-92.778667 33.130666a1356.458667 1356.458667 0 0 0-72.426667-171.392z m-41.6 265.514667c1.344-0.554667 112.149333-65.344 113.493333-66.026667 26.922667-15.658667 60.821333-39.296 93.226667-37.269333 104.725333 0 150.570667 133.397333 67.754666 197.610667a110.08 110.08 0 0 1-51.626666 21.802666l-172.352 24.853334c-30.464 8.064-62.293333-2.986667-80.704-28.650667-27.797333-36.864-12.373333-94.4 30.229333-112.32z" p-id="5909"></path><path d="M334.933333 270.784c-3.2-88.853333-131.050667-88.661333-134.122666 0 2.304 88.426667 131.797333 88.426667 134.101333 0z m-110.122666 0c1.770667-56.853333 84.266667-56.96 86.101333 0-1.493333 56.768-84.629333 56.768-86.101333 0z m199.594666 470.784c55.082667 1.386667 97.514667-57.130667 79.296-109.056-10.645333-33.834667-43.84-57.941333-79.296-57.621333-110.122667 3.413333-110.186667 163.52 0 166.677333z m0-142.677333c31.850667-0.597333 59.989333 27.434667 59.328 59.328 0.533333 32.106667-27.242667 59.84-59.328 59.349333-78.485333-2.24-78.378667-116.266667 0-118.677333zM666.005333 156.373333c51.306667-1.621333 51.2-76.053333 0-77.589333-51.306667 1.621333-51.2 76.053333 0 77.589333z m0-53.589333c19.157333 0.128 19.669333 29.184 0 29.589333-19.392-0.32-19.434667-29.226667 0-29.589333z" p-id="5910"></path></svg>